# xmcd
#
# Track frame offsets: 
#        150
#        14995
#        54359
#        72575
#        100481
#        119040
#        150402
#        170627
#
# Disc length: 3060 seconds
#
# Revision: 0
# Processed by: cddbd v1.5.2PL0 Copyright (c) Steve Scherf et al.
# Submitted via: ExactAudioCopy v0.95a5
#
DISCID=740bf208
DTITLE=The Bluesbones - Double Live
DYEAR=2016
DGENRE=Blues
TTITLE0=Saved By The Blues
TTITLE1=Voodoo Guitar
TTITLE2=Riding Out
TTITLE3=Moonshine
TTITLE4=Find Me A Woman
TTITLE5=I'm Still Your Man
TTITLE6=No Good For Me
TTITLE7=She's Got The Devil In Her
EXTD=
EXTT0=
EXTT1=
EXTT2=
EXTT3=
EXTT4=
EXTT5=
EXTT6=
EXTT7=
PLAYORDER=
